<svg width="135" height="144" viewBox="0 0 135 144" fill="none" xmlns="http://www.w3.org/2000/svg">
<path d="M62.9302 8.44629L79.4013 28.1898L86.2238 75.8549L79.4013 123.52L62.9302 143.264L46.4592 123.52L39.6367 75.8549L46.4592 28.1898L62.9302 8.44629Z" fill="url(#paint0_linear_349_34278)"/>
<mask id="mask0_349_34278" style="mask-type:alpha" maskUnits="userSpaceOnUse" x="14" y="48" width="69" height="60">
<path d="M54.5607 48.6871L76.573 57.1514L82.2004 77.7238L68.062 98.4771L42.406 107.131L20.3937 98.6664L14.7663 78.0941L28.9047 57.3407L54.5607 48.6871Z" fill="url(#paint1_linear_349_34278)" stroke="url(#paint2_linear_349_34278)"/>
</mask>
<g mask="url(#mask0_349_34278)">
<mask id="mask1_349_34278" style="mask-type:alpha" maskUnits="userSpaceOnUse" x="57" y="65" width="69" height="61">
<path d="M97.6046 66.3858L119.617 74.8502L125.244 95.4225L111.106 116.176L85.45 124.829L63.4377 116.365L57.8102 95.7928L71.9486 75.0395L97.6046 66.3858Z" fill="url(#paint3_linear_349_34278)" stroke="url(#paint4_linear_349_34278)"/>
</mask>
<g mask="url(#mask1_349_34278)">
<path d="M43.7995 58.8004L65.8117 67.2647L71.4392 87.837L57.3008 108.59L31.6448 117.244L9.6325 108.78L4.00508 88.2074L18.1435 67.454L43.7995 58.8004Z" fill="url(#paint5_linear_349_34278)" stroke="url(#paint6_linear_349_34278)"/>
</g>
<mask id="mask2_349_34278" style="mask-type:alpha" maskUnits="userSpaceOnUse" x="71" y="44" width="70" height="60">
<path d="M111.953 44.8946L133.965 53.3589L139.592 73.9313L125.454 94.6846L99.7981 103.338L77.7858 94.8739L72.1584 74.3016L86.2968 53.5482L111.953 44.8946Z" fill="url(#paint7_linear_349_34278)" stroke="url(#paint8_linear_349_34278)"/>
</mask>
<g mask="url(#mask2_349_34278)">
<path d="M58.1476 37.3092L80.1599 45.7735L85.7873 66.3458L71.6489 87.0992L45.9929 95.7528L23.9806 87.2885L18.3532 66.7161L32.4916 45.9628L58.1476 37.3092Z" fill="url(#paint9_linear_349_34278)" stroke="url(#paint10_linear_349_34278)"/>
</g>
<mask id="mask3_349_34278" style="mask-type:alpha" maskUnits="userSpaceOnUse" x="73" y="6" width="69" height="60">
<path d="M113.387 6.96833L135.4 15.4327L141.027 36.005L126.889 56.7584L101.233 65.412L79.2204 56.9477L73.593 36.3753L87.7314 15.622L113.387 6.96833Z" fill="url(#paint11_linear_349_34278)" stroke="url(#paint12_linear_349_34278)"/>
</mask>
<g mask="url(#mask3_349_34278)">
<path d="M59.5822 -0.617118L81.5945 7.84723L87.2219 28.4196L73.0835 49.1729L47.4275 57.8266L25.4152 49.3622L19.7878 28.7899L33.9262 8.03653L59.5822 -0.617118Z" fill="url(#paint13_linear_349_34278)" stroke="url(#paint14_linear_349_34278)"/>
</g>
<mask id="mask4_349_34278" style="mask-type:alpha" maskUnits="userSpaceOnUse" x="55" y="22" width="70" height="60">
<path d="M96.1696 22.7711L118.182 31.2354L123.809 51.8077L109.671 72.5611L84.0149 81.2147L62.0026 72.7504L56.3752 52.1781L70.5136 31.4247L96.1696 22.7711Z" fill="url(#paint15_linear_349_34278)" stroke="url(#paint16_linear_349_34278)"/>
</mask>
<g mask="url(#mask4_349_34278)">
<path d="M42.3644 15.1856L64.3767 23.65L70.0041 44.2223L55.8657 64.9756L30.2097 73.6293L8.19744 65.1649L2.57002 44.5926L16.7084 23.8393L42.3644 15.1856Z" fill="url(#paint17_linear_349_34278)" stroke="url(#paint18_linear_349_34278)"/>
</g>
<mask id="mask5_349_34278" style="mask-type:alpha" maskUnits="userSpaceOnUse" x="68" y="38" width="70" height="61">
<path d="M109.083 39.2056L131.095 47.67L136.722 68.2423L122.584 88.9957L96.928 97.6493L74.9157 89.185L69.2883 68.6126L83.4267 47.8593L109.083 39.2056Z" fill="url(#paint19_linear_349_34278)" stroke="url(#paint20_linear_349_34278)"/>
</mask>
<g mask="url(#mask5_349_34278)">
<path d="M55.278 31.6202L77.2903 40.0845L82.9177 60.6569L68.7793 81.4102L43.1233 90.0639L21.111 81.5995L15.4836 61.0272L29.622 40.2738L55.278 31.6202Z" fill="url(#paint21_linear_349_34278)" stroke="url(#paint22_linear_349_34278)"/>
</g>
<mask id="mask6_349_34278" style="mask-type:alpha" maskUnits="userSpaceOnUse" x="59" y="28" width="69" height="61">
<path d="M99.757 29.0919L121.769 37.5562L127.397 58.1285L113.258 78.8819L87.6023 87.5355L65.59 79.0712L59.9626 58.4989L74.101 37.7455L99.757 29.0919Z" fill="url(#paint23_linear_349_34278)" stroke="url(#paint24_linear_349_34278)"/>
</mask>
<g mask="url(#mask6_349_34278)">
<path d="M45.9518 21.5064L67.9641 29.9708L73.5915 50.5431L59.4531 71.2964L33.7971 79.9501L11.7848 71.4857L6.15742 50.9134L20.2958 30.1601L45.9518 21.5064Z" fill="url(#paint25_linear_349_34278)" stroke="url(#paint26_linear_349_34278)"/>
</g>
<mask id="mask7_349_34278" style="mask-type:alpha" maskUnits="userSpaceOnUse" x="45" y="48" width="70" height="60">
<path d="M86.1266 48.6871L108.139 57.1514L113.766 77.7238L99.6279 98.4771L73.9719 107.131L51.9596 98.6664L46.3322 78.0941L60.4706 57.3407L86.1266 48.6871Z" fill="url(#paint27_linear_349_34278)" stroke="url(#paint28_linear_349_34278)"/>
</mask>
<g mask="url(#mask7_349_34278)">
<path d="M32.3214 41.1016L54.3337 49.566L59.9611 70.1383L45.8227 90.8917L20.1668 99.5453L-1.84552 91.081L-7.47295 70.5086L6.66545 49.7553L32.3214 41.1016Z" fill="url(#paint29_linear_349_34278)" stroke="url(#paint30_linear_349_34278)"/>
</g>
</g>
<mask id="mask8_349_34278" style="mask-type:alpha" maskUnits="userSpaceOnUse" x="39" y="48" width="79" height="64">
<path d="M71.7027 111.376L46.5673 102.307L40.2232 80.4129L56.4794 58.3937L85.8499 49.2734L110.985 58.3424L117.329 80.2361L101.073 102.255L71.7027 111.376Z" fill="url(#paint31_linear_349_34278)" stroke="url(#paint32_linear_349_34278)"/>
</mask>
<g mask="url(#mask8_349_34278)">
<mask id="mask9_349_34278" style="mask-type:alpha" maskUnits="userSpaceOnUse" x="-10" y="29" width="79" height="64">
<path d="M22.6451 92.4556L-2.49028 83.3866L-8.83443 61.4929L7.42182 39.4738L36.7923 30.3535L61.9276 39.4225L68.2717 61.3161L52.0155 83.3353L22.6451 92.4556Z" fill="url(#paint33_linear_349_34278)" stroke="url(#paint34_linear_349_34278)"/>
</mask>
<g mask="url(#mask9_349_34278)">
<path d="M84.0318 100.673L58.8964 91.6044L52.5523 69.7107L68.8085 47.6915L98.179 38.5712L123.314 47.6402L129.658 69.5339L113.402 91.5531L84.0318 100.673Z" fill="url(#paint35_linear_349_34278)" stroke="url(#paint36_linear_349_34278)"/>
</g>
<mask id="mask10_349_34278" style="mask-type:alpha" maskUnits="userSpaceOnUse" x="-26" y="52" width="79" height="64">
<path d="M6.17046 115.224L-18.9649 106.155L-25.309 84.2615L-9.05278 62.2423L20.3176 53.122L45.453 62.191L51.7971 84.0847L35.5409 106.104L6.17046 115.224Z" fill="url(#paint37_linear_349_34278)" stroke="url(#paint38_linear_349_34278)"/>
</mask>
<g mask="url(#mask10_349_34278)">
<path d="M67.5572 123.442L42.4218 114.373L36.0777 92.4793L52.3339 70.4601L81.7044 61.3398L106.84 70.4088L113.184 92.3025L96.9276 114.322L67.5572 123.442Z" fill="url(#paint39_linear_349_34278)" stroke="url(#paint40_linear_349_34278)"/>
</g>
<mask id="mask11_349_34278" style="mask-type:alpha" maskUnits="userSpaceOnUse" x="-28" y="92" width="79" height="64">
<path d="M4.36479 155.478L-20.7705 146.409L-27.1147 124.515L-10.8584 102.496L18.512 93.3754L43.6473 102.444L49.9915 124.338L33.7352 146.357L4.36479 155.478Z" fill="url(#paint41_linear_349_34278)" stroke="url(#paint42_linear_349_34278)"/>
</mask>
<g mask="url(#mask11_349_34278)">
<path d="M65.7515 163.695L40.6162 154.626L34.272 132.733L50.5283 110.714L79.8987 101.593L105.034 110.662L111.378 132.556L95.1219 154.575L65.7515 163.695Z" fill="url(#paint43_linear_349_34278)" stroke="url(#paint44_linear_349_34278)"/>
</g>
<mask id="mask12_349_34278" style="mask-type:alpha" maskUnits="userSpaceOnUse" x="-8" y="76" width="79" height="64">
<path d="M24.0894 138.756L-1.04594 129.687L-7.39009 107.794L8.86616 85.7745L38.2366 76.6543L63.3719 85.7232L69.7161 107.617L53.4598 129.636L24.0894 138.756Z" fill="url(#paint45_linear_349_34278)" stroke="url(#paint46_linear_349_34278)"/>
</mask>
<g mask="url(#mask12_349_34278)">
<path d="M85.4761 146.974L60.3408 137.905L53.9966 116.011L70.2529 93.9923L99.6233 84.872L124.759 93.941L131.103 115.835L114.847 137.854L85.4761 146.974Z" fill="url(#paint47_linear_349_34278)" stroke="url(#paint48_linear_349_34278)"/>
</g>
<mask id="mask13_349_34278" style="mask-type:alpha" maskUnits="userSpaceOnUse" x="-23" y="58" width="79" height="64">
<path d="M9.42143 121.272L-15.7139 112.203L-22.0581 90.3089L-5.80181 68.2897L23.5686 59.1694L48.704 68.2384L55.0481 90.1321L38.7919 112.151L9.42143 121.272Z" fill="url(#paint49_linear_349_34278)" stroke="url(#paint50_linear_349_34278)"/>
</mask>
<g mask="url(#mask13_349_34278)">
<path d="M70.8082 129.489L45.6728 120.42L39.3287 98.5266L55.5849 76.5075L84.9553 67.3872L110.091 76.4562L116.435 98.3498L100.179 120.369L70.8082 129.489Z" fill="url(#paint51_linear_349_34278)" stroke="url(#paint52_linear_349_34278)"/>
</g>
<mask id="mask14_349_34278" style="mask-type:alpha" maskUnits="userSpaceOnUse" x="-13" y="69" width="80" height="64">
<path d="M20.023 132.036L-5.11235 122.967L-11.4565 101.073L4.79975 79.0539L34.1702 69.9336L59.3055 79.0026L65.6497 100.896L49.3934 122.915L20.023 132.036Z" fill="url(#paint53_linear_349_34278)" stroke="url(#paint54_linear_349_34278)"/>
</mask>
<g mask="url(#mask14_349_34278)">
<path d="M81.4097 140.253L56.2744 131.184L49.9302 109.291L66.1865 87.2716L95.5569 78.1513L120.692 87.2203L127.036 109.114L110.78 131.133L81.4097 140.253Z" fill="url(#paint55_linear_349_34278)" stroke="url(#paint56_linear_349_34278)"/>
</g>
<mask id="mask15_349_34278" style="mask-type:alpha" maskUnits="userSpaceOnUse" x="3" y="48" width="79" height="64">
<path d="M35.669 111.278L10.5336 102.209L4.1895 80.3152L20.4458 58.296L49.8162 49.1757L74.9515 58.2447L81.2957 80.1384L65.0394 102.158L35.669 111.278Z" fill="url(#paint57_linear_349_34278)" stroke="url(#paint58_linear_349_34278)"/>
</mask>
<g mask="url(#mask15_349_34278)">
<path d="M97.0557 119.496L71.9204 110.427L65.5762 88.533L81.8325 66.5138L111.203 57.3935L136.338 66.4625L142.682 88.3562L126.426 110.375L97.0557 119.496Z" fill="url(#paint59_linear_349_34278)" stroke="url(#paint60_linear_349_34278)"/>
</g>
</g>
<mask id="mask16_349_34278" style="mask-type:alpha" maskUnits="userSpaceOnUse" x="42" y="11" width="65" height="58">
<path d="M68.8415 68.2858L48.1969 60.1375L42.9925 40.4549L56.3602 20.6447L80.5019 12.4346L101.147 20.583L106.351 40.2655L92.9832 60.0757L68.8415 68.2858Z" fill="url(#paint61_linear_349_34278)" stroke="url(#paint62_linear_349_34278)"/>
</mask>
<g mask="url(#mask16_349_34278)">
<mask id="mask17_349_34278" style="mask-type:alpha" maskUnits="userSpaceOnUse" x="2" y="-6" width="65" height="58">
<path d="M28.4333 51.237L7.78868 43.0886L2.58433 23.4061L15.952 3.59586L40.0937 -4.61425L60.7383 3.53412L65.9426 23.2167L52.575 43.0269L28.4333 51.237Z" fill="url(#paint63_linear_349_34278)" stroke="url(#paint64_linear_349_34278)"/>
</mask>
<g mask="url(#mask17_349_34278)">
<path d="M79.0017 58.634L58.357 50.4856L53.1527 30.803L66.5204 10.9928L90.662 2.78273L111.307 10.9311L116.511 30.6137L103.143 50.4239L79.0017 58.634Z" fill="url(#paint65_linear_349_34278)" stroke="url(#paint66_linear_349_34278)"/>
</g>
<mask id="mask18_349_34278" style="mask-type:alpha" maskUnits="userSpaceOnUse" x="-12" y="15" width="65" height="58">
<path d="M14.8542 71.7697L-5.79042 63.6214L-10.9948 43.9388L2.37291 24.1286L26.5146 15.9185L47.1592 24.0668L52.3635 43.7494L38.9959 63.5596L14.8542 71.7697Z" fill="url(#paint67_linear_349_34278)" stroke="url(#paint68_linear_349_34278)"/>
</mask>
<g mask="url(#mask18_349_34278)">
<path d="M65.4226 79.1667L44.7779 71.0183L39.5736 51.3357L52.9413 31.5256L77.0829 23.3155L97.7276 31.4638L102.932 51.1464L89.5642 70.9566L65.4226 79.1667Z" fill="url(#paint69_linear_349_34278)" stroke="url(#paint70_linear_349_34278)"/>
</g>
<mask id="mask19_349_34278" style="mask-type:alpha" maskUnits="userSpaceOnUse" x="-14" y="51" width="66" height="58">
<path d="M13.3537 108.064L-7.29091 99.9158L-12.4953 80.2332L0.872423 60.423L25.0141 52.2129L45.6587 60.3613L50.8631 80.0439L37.4954 99.8541L13.3537 108.064Z" fill="url(#paint71_linear_349_34278)" stroke="url(#paint72_linear_349_34278)"/>
</mask>
<g mask="url(#mask19_349_34278)">
<path d="M63.9221 115.461L43.2775 107.313L38.0731 87.6302L51.4408 67.82L75.5824 59.6099L96.2271 67.7582L101.431 87.4408L88.0637 107.251L63.9221 115.461Z" fill="url(#paint73_linear_349_34278)" stroke="url(#paint74_linear_349_34278)"/>
</g>
<mask id="mask20_349_34278" style="mask-type:alpha" maskUnits="userSpaceOnUse" x="3" y="36" width="65" height="58">
<path d="M29.6086 92.9836L8.96398 84.8352L3.75963 65.1526L17.1273 45.3424L41.269 37.1323L61.9136 45.2807L67.1179 64.9633L53.7502 84.7735L29.6086 92.9836Z" fill="url(#paint75_linear_349_34278)" stroke="url(#paint76_linear_349_34278)"/>
</mask>
<g mask="url(#mask20_349_34278)">
<path d="M80.1769 100.381L59.5323 92.2322L54.328 72.5496L67.6957 52.7394L91.8373 44.5293L112.482 52.6777L117.686 72.3603L104.319 92.1705L80.1769 100.381Z" fill="url(#paint77_linear_349_34278)" stroke="url(#paint78_linear_349_34278)"/>
</g>
<mask id="mask21_349_34278" style="mask-type:alpha" maskUnits="userSpaceOnUse" x="-9" y="20" width="65" height="58">
<path d="M17.53 77.2219L-3.11464 69.0735L-8.31899 49.3909L5.04869 29.5807L29.1904 21.3706L49.835 29.519L55.0393 49.2016L41.6716 69.0118L17.53 77.2219Z" fill="url(#paint79_linear_349_34278)" stroke="url(#paint80_linear_349_34278)"/>
</mask>
<g mask="url(#mask21_349_34278)">
<path d="M68.0983 84.6188L47.4537 76.4705L42.2494 56.7879L55.617 36.9777L79.7587 28.7676L100.403 36.916L105.608 56.5986L92.24 76.4087L68.0983 84.6188Z" fill="url(#paint81_linear_349_34278)" stroke="url(#paint82_linear_349_34278)"/>
</g>
<mask id="mask22_349_34278" style="mask-type:alpha" maskUnits="userSpaceOnUse" x="-1" y="30" width="66" height="58">
<path d="M26.2604 86.925L5.61583 78.7766L0.411482 59.094L13.7792 39.2838L37.9208 31.0737L58.5654 39.2221L63.7698 58.9047L50.4021 78.7149L26.2604 86.925Z" fill="url(#paint83_linear_349_34278)" stroke="url(#paint84_linear_349_34278)"/>
</mask>
<g mask="url(#mask22_349_34278)">
<path d="M76.8288 94.322L56.1842 86.1736L50.9798 66.491L64.3475 46.6808L88.4892 38.4707L109.134 46.6191L114.338 66.3017L100.97 86.1119L76.8288 94.322Z" fill="url(#paint85_linear_349_34278)" stroke="url(#paint86_linear_349_34278)"/>
</g>
<mask id="mask23_349_34278" style="mask-type:alpha" maskUnits="userSpaceOnUse" x="12" y="11" width="66" height="58">
<path d="M39.1564 68.2053L18.5118 60.0569L13.3075 40.3743L26.6752 20.5641L50.8168 12.354L71.4614 20.5024L76.6658 40.185L63.2981 59.9952L39.1564 68.2053Z" fill="url(#paint87_linear_349_34278)" stroke="url(#paint88_linear_349_34278)"/>
</mask>
<g mask="url(#mask23_349_34278)">
<path d="M89.7248 75.6022L69.0802 67.4539L63.8758 47.7713L77.2435 27.9611L101.385 19.751L122.03 27.8994L127.234 47.582L113.866 67.3921L89.7248 75.6022Z" fill="url(#paint89_linear_349_34278)" stroke="url(#paint90_linear_349_34278)"/>
</g>
</g>
<mask id="mask24_349_34278" style="mask-type:alpha" maskUnits="userSpaceOnUse" x="46" y="82" width="66" height="52">
<path d="M73.0246 132.923L52.4149 125.694L47.2111 108.248L60.5576 90.6762L84.6738 83.3996L105.284 90.6279L110.487 108.075L97.1408 125.646L73.0246 132.923Z" fill="url(#paint91_linear_349_34278)" stroke="url(#paint92_linear_349_34278)"/>
</mask>
<g mask="url(#mask24_349_34278)">
<mask id="mask25_349_34278" style="mask-type:alpha" maskUnits="userSpaceOnUse" x="6" y="67" width="65" height="52">
<path d="M32.6252 117.778L12.0155 110.549L6.8117 93.1027L20.1582 75.5312L44.2744 68.2546L64.8841 75.4829L70.0879 92.9297L56.7414 110.501L32.6252 117.778Z" fill="url(#paint93_linear_349_34278)" stroke="url(#paint94_linear_349_34278)"/>
</mask>
<g mask="url(#mask25_349_34278)">
<path d="M83.176 124.359L62.5663 117.13L57.3625 99.6837L70.709 82.1123L94.8252 74.8356L115.435 82.064L120.639 99.5107L107.292 117.082L83.176 124.359Z" fill="url(#paint95_linear_349_34278)" stroke="url(#paint96_linear_349_34278)"/>
</g>
<mask id="mask26_349_34278" style="mask-type:alpha" maskUnits="userSpaceOnUse" x="-8" y="85" width="66" height="52">
<path d="M19.0612 135.998L-1.5485 128.77L-6.75227 111.323L6.59421 93.7519L30.7104 86.4753L51.3202 93.7036L56.5239 111.15L43.1775 128.722L19.0612 135.998Z" fill="url(#paint97_linear_349_34278)" stroke="url(#paint98_linear_349_34278)"/>
</mask>
<g mask="url(#mask26_349_34278)">
<path d="M69.612 142.58L49.0023 135.351L43.7985 117.904L57.145 100.333L81.2612 93.0563L101.871 100.285L107.075 117.731L93.7282 135.303L69.612 142.58Z" fill="url(#paint99_linear_349_34278)" stroke="url(#paint100_linear_349_34278)"/>
</g>
<mask id="mask27_349_34278" style="mask-type:alpha" maskUnits="userSpaceOnUse" x="-9" y="118" width="65" height="51">
<path d="M17.5778 168.214L-3.03189 160.986L-8.23567 143.539L5.11081 125.968L29.227 118.691L49.8368 125.919L55.0405 143.366L41.6941 160.938L17.5778 168.214Z" fill="url(#paint101_linear_349_34278)" stroke="url(#paint102_linear_349_34278)"/>
</mask>
<g mask="url(#mask27_349_34278)">
<path d="M68.1286 174.795L47.5189 167.567L42.3151 150.12L55.6616 132.549L79.7778 125.272L100.388 132.501L105.591 149.947L92.2448 167.519L68.1286 174.795Z" fill="url(#paint103_linear_349_34278)" stroke="url(#paint104_linear_349_34278)"/>
</g>
<mask id="mask28_349_34278" style="mask-type:alpha" maskUnits="userSpaceOnUse" x="7" y="104" width="65" height="52">
<path d="M33.819 154.833L13.2093 147.605L8.00554 130.158L21.352 112.587L45.4683 105.31L66.078 112.539L71.2818 129.985L57.9353 147.557L33.819 154.833Z" fill="url(#paint105_linear_349_34278)" stroke="url(#paint106_linear_349_34278)"/>
</mask>
<g mask="url(#mask28_349_34278)">
<path d="M84.3698 161.415L63.7601 154.186L58.5563 136.739L71.9028 119.168L96.019 111.891L116.629 119.12L121.833 136.566L108.486 154.138L84.3698 161.415Z" fill="url(#paint107_linear_349_34278)" stroke="url(#paint108_linear_349_34278)"/>
</g>
<mask id="mask29_349_34278" style="mask-type:alpha" maskUnits="userSpaceOnUse" x="-5" y="90" width="65" height="52">
<path d="M21.7385 140.839L1.12875 133.61L-4.07502 116.164L9.27145 98.5923L33.3877 91.3156L53.9974 98.544L59.2012 115.991L45.8547 133.562L21.7385 140.839Z" fill="url(#paint109_linear_349_34278)" stroke="url(#paint110_linear_349_34278)"/>
</mask>
<g mask="url(#mask29_349_34278)">
<path d="M72.2893 147.42L51.6795 140.192L46.4758 122.745L59.8222 105.173L83.9385 97.8967L104.548 105.125L109.752 122.572L96.4055 140.143L72.2893 147.42Z" fill="url(#paint111_linear_349_34278)" stroke="url(#paint112_linear_349_34278)"/>
</g>
<mask id="mask30_349_34278" style="mask-type:alpha" maskUnits="userSpaceOnUse" x="4" y="99" width="65" height="51">
<path d="M30.4699 149.455L9.8602 142.226L4.65642 124.779L18.0029 107.208L42.1191 99.9313L62.7289 107.16L67.9326 124.606L54.5862 142.178L30.4699 149.455Z" fill="url(#paint113_linear_349_34278)" stroke="url(#paint114_linear_349_34278)"/>
</mask>
<g mask="url(#mask30_349_34278)">
<path d="M81.0207 156.036L60.411 148.807L55.2072 131.36L68.5537 113.789L92.6699 106.512L113.28 113.741L118.483 131.187L105.137 148.759L81.0207 156.036Z" fill="url(#paint115_linear_349_34278)" stroke="url(#paint116_linear_349_34278)"/>
</g>
<mask id="mask31_349_34278" style="mask-type:alpha" maskUnits="userSpaceOnUse" x="16" y="82" width="66" height="52">
<path d="M43.3518 132.842L22.742 125.614L17.5383 108.167L30.8847 90.5957L55.001 83.319L75.6107 90.5474L80.8145 107.994L67.468 125.566L43.3518 132.842Z" fill="url(#paint117_linear_349_34278)" stroke="url(#paint118_linear_349_34278)"/>
</mask>
<g mask="url(#mask31_349_34278)">
<path d="M93.9025 139.423L73.2928 132.195L68.089 114.748L81.4355 97.1767L105.552 89.9001L126.161 97.1284L131.365 114.575L118.019 132.147L93.9025 139.423Z" fill="url(#paint119_linear_349_34278)" stroke="url(#paint120_linear_349_34278)"/>
</g>
</g>
<defs>
<linearGradient id="paint0_linear_349_34278" x1="39.6367" y1="8.44629" x2="115.093" y2="27.218" gradientUnits="userSpaceOnUse">
<stop stop-color="#4135F3"/>
<stop offset="1" stop-color="#7168F6"/>
</linearGradient>
<linearGradient id="paint1_linear_349_34278" x1="57.0815" y1="35.8677" x2="68.3003" y2="115.97" gradientUnits="userSpaceOnUse">
<stop stop-color="#4135F3"/>
<stop offset="1" stop-color="#7168F6"/>
</linearGradient>
<linearGradient id="paint2_linear_349_34278" x1="57.0815" y1="35.8677" x2="68.3003" y2="115.97" gradientUnits="userSpaceOnUse">
<stop stop-color="#4135F3"/>
<stop offset="1" stop-color="#7168F6"/>
</linearGradient>
<linearGradient id="paint3_linear_349_34278" x1="100.125" y1="53.5664" x2="111.344" y2="133.669" gradientUnits="userSpaceOnUse">
<stop stop-color="#4135F3"/>
<stop offset="1" stop-color="#7168F6"/>
</linearGradient>
<linearGradient id="paint4_linear_349_34278" x1="100.125" y1="53.5664" x2="111.344" y2="133.669" gradientUnits="userSpaceOnUse">
<stop stop-color="#4135F3"/>
<stop offset="1" stop-color="#7168F6"/>
</linearGradient>
<linearGradient id="paint5_linear_349_34278" x1="46.3203" y1="45.981" x2="57.5391" y2="126.084" gradientUnits="userSpaceOnUse">
<stop stop-color="#4135F3"/>
<stop offset="1" stop-color="#7168F6"/>
</linearGradient>
<linearGradient id="paint6_linear_349_34278" x1="46.3203" y1="45.981" x2="57.5391" y2="126.084" gradientUnits="userSpaceOnUse">
<stop stop-color="#4135F3"/>
<stop offset="1" stop-color="#7168F6"/>
</linearGradient>
<linearGradient id="paint7_linear_349_34278" x1="114.474" y1="32.0752" x2="125.692" y2="112.178" gradientUnits="userSpaceOnUse">
<stop stop-color="#4135F3"/>
<stop offset="1" stop-color="#7168F6"/>
</linearGradient>
<linearGradient id="paint8_linear_349_34278" x1="114.474" y1="32.0752" x2="125.692" y2="112.178" gradientUnits="userSpaceOnUse">
<stop stop-color="#4135F3"/>
<stop offset="1" stop-color="#7168F6"/>
</linearGradient>
<linearGradient id="paint9_linear_349_34278" x1="60.6685" y1="24.4897" x2="71.8872" y2="104.593" gradientUnits="userSpaceOnUse">
<stop stop-color="#4135F3"/>
<stop offset="1" stop-color="#7168F6"/>
</linearGradient>
<linearGradient id="paint10_linear_349_34278" x1="60.6685" y1="24.4897" x2="71.8872" y2="104.593" gradientUnits="userSpaceOnUse">
<stop stop-color="#4135F3"/>
<stop offset="1" stop-color="#7168F6"/>
</linearGradient>
<linearGradient id="paint11_linear_349_34278" x1="115.908" y1="-5.85107" x2="127.127" y2="74.2517" gradientUnits="userSpaceOnUse">
<stop stop-color="#4135F3"/>
<stop offset="1" stop-color="#7168F6"/>
</linearGradient>
<linearGradient id="paint12_linear_349_34278" x1="115.908" y1="-5.85107" x2="127.127" y2="74.2517" gradientUnits="userSpaceOnUse">
<stop stop-color="#4135F3"/>
<stop offset="1" stop-color="#7168F6"/>
</linearGradient>
<linearGradient id="paint13_linear_349_34278" x1="62.103" y1="-13.4365" x2="73.3218" y2="66.6663" gradientUnits="userSpaceOnUse">
<stop stop-color="#4135F3"/>
<stop offset="1" stop-color="#7168F6"/>
</linearGradient>
<linearGradient id="paint14_linear_349_34278" x1="62.103" y1="-13.4365" x2="73.3218" y2="66.6663" gradientUnits="userSpaceOnUse">
<stop stop-color="#4135F3"/>
<stop offset="1" stop-color="#7168F6"/>
</linearGradient>
<linearGradient id="paint15_linear_349_34278" x1="98.6904" y1="9.95166" x2="109.909" y2="90.0545" gradientUnits="userSpaceOnUse">
<stop stop-color="#4135F3"/>
<stop offset="1" stop-color="#7168F6"/>
</linearGradient>
<linearGradient id="paint16_linear_349_34278" x1="98.6904" y1="9.95166" x2="109.909" y2="90.0545" gradientUnits="userSpaceOnUse">
<stop stop-color="#4135F3"/>
<stop offset="1" stop-color="#7168F6"/>
</linearGradient>
<linearGradient id="paint17_linear_349_34278" x1="44.8853" y1="2.36621" x2="56.104" y2="82.469" gradientUnits="userSpaceOnUse">
<stop stop-color="#4135F3"/>
<stop offset="1" stop-color="#7168F6"/>
</linearGradient>
<linearGradient id="paint18_linear_349_34278" x1="44.8853" y1="2.36621" x2="56.104" y2="82.469" gradientUnits="userSpaceOnUse">
<stop stop-color="#4135F3"/>
<stop offset="1" stop-color="#7168F6"/>
</linearGradient>
<linearGradient id="paint19_linear_349_34278" x1="111.604" y1="26.3862" x2="122.822" y2="106.489" gradientUnits="userSpaceOnUse">
<stop stop-color="#4135F3"/>
<stop offset="1" stop-color="#7168F6"/>
</linearGradient>
<linearGradient id="paint20_linear_349_34278" x1="111.604" y1="26.3862" x2="122.822" y2="106.489" gradientUnits="userSpaceOnUse">
<stop stop-color="#4135F3"/>
<stop offset="1" stop-color="#7168F6"/>
</linearGradient>
<linearGradient id="paint21_linear_349_34278" x1="57.7988" y1="18.8008" x2="69.0176" y2="98.9036" gradientUnits="userSpaceOnUse">
<stop stop-color="#4135F3"/>
<stop offset="1" stop-color="#7168F6"/>
</linearGradient>
<linearGradient id="paint22_linear_349_34278" x1="57.7988" y1="18.8008" x2="69.0176" y2="98.9036" gradientUnits="userSpaceOnUse">
<stop stop-color="#4135F3"/>
<stop offset="1" stop-color="#7168F6"/>
</linearGradient>
<linearGradient id="paint23_linear_349_34278" x1="102.278" y1="16.2725" x2="113.497" y2="96.3753" gradientUnits="userSpaceOnUse">
<stop stop-color="#4135F3"/>
<stop offset="1" stop-color="#7168F6"/>
</linearGradient>
<linearGradient id="paint24_linear_349_34278" x1="102.278" y1="16.2725" x2="113.497" y2="96.3753" gradientUnits="userSpaceOnUse">
<stop stop-color="#4135F3"/>
<stop offset="1" stop-color="#7168F6"/>
</linearGradient>
<linearGradient id="paint25_linear_349_34278" x1="48.4727" y1="8.68701" x2="59.6914" y2="88.7898" gradientUnits="userSpaceOnUse">
<stop stop-color="#4135F3"/>
<stop offset="1" stop-color="#7168F6"/>
</linearGradient>
<linearGradient id="paint26_linear_349_34278" x1="48.4727" y1="8.68701" x2="59.6914" y2="88.7898" gradientUnits="userSpaceOnUse">
<stop stop-color="#4135F3"/>
<stop offset="1" stop-color="#7168F6"/>
</linearGradient>
<linearGradient id="paint27_linear_349_34278" x1="88.6475" y1="35.8677" x2="99.8662" y2="115.97" gradientUnits="userSpaceOnUse">
<stop stop-color="#4135F3"/>
<stop offset="1" stop-color="#7168F6"/>
</linearGradient>
<linearGradient id="paint28_linear_349_34278" x1="88.6475" y1="35.8677" x2="99.8662" y2="115.97" gradientUnits="userSpaceOnUse">
<stop stop-color="#4135F3"/>
<stop offset="1" stop-color="#7168F6"/>
</linearGradient>
<linearGradient id="paint29_linear_349_34278" x1="34.8423" y1="28.2822" x2="46.0611" y2="108.385" gradientUnits="userSpaceOnUse">
<stop stop-color="#4135F3"/>
<stop offset="1" stop-color="#7168F6"/>
</linearGradient>
<linearGradient id="paint30_linear_349_34278" x1="34.8423" y1="28.2822" x2="46.0611" y2="108.385" gradientUnits="userSpaceOnUse">
<stop stop-color="#4135F3"/>
<stop offset="1" stop-color="#7168F6"/>
</linearGradient>
<linearGradient id="paint31_linear_349_34278" x1="68.7749" y1="124.924" x2="57.9075" y2="39.6597" gradientUnits="userSpaceOnUse">
<stop stop-color="#4135F3"/>
<stop offset="1" stop-color="#7168F6"/>
</linearGradient>
<linearGradient id="paint32_linear_349_34278" x1="68.7749" y1="124.924" x2="57.9075" y2="39.6597" gradientUnits="userSpaceOnUse">
<stop stop-color="#4135F3"/>
<stop offset="1" stop-color="#7168F6"/>
</linearGradient>
<linearGradient id="paint33_linear_349_34278" x1="19.7173" y1="106.004" x2="8.84988" y2="20.7398" gradientUnits="userSpaceOnUse">
<stop stop-color="#4135F3"/>
<stop offset="1" stop-color="#7168F6"/>
</linearGradient>
<linearGradient id="paint34_linear_349_34278" x1="19.7173" y1="106.004" x2="8.84988" y2="20.7398" gradientUnits="userSpaceOnUse">
<stop stop-color="#4135F3"/>
<stop offset="1" stop-color="#7168F6"/>
</linearGradient>
<linearGradient id="paint35_linear_349_34278" x1="81.104" y1="114.222" x2="70.2366" y2="28.9575" gradientUnits="userSpaceOnUse">
<stop stop-color="#4135F3"/>
<stop offset="1" stop-color="#7168F6"/>
</linearGradient>
<linearGradient id="paint36_linear_349_34278" x1="81.104" y1="114.222" x2="70.2366" y2="28.9575" gradientUnits="userSpaceOnUse">
<stop stop-color="#4135F3"/>
<stop offset="1" stop-color="#7168F6"/>
</linearGradient>
<linearGradient id="paint37_linear_349_34278" x1="3.24268" y1="128.772" x2="-7.62472" y2="43.5083" gradientUnits="userSpaceOnUse">
<stop stop-color="#4135F3"/>
<stop offset="1" stop-color="#7168F6"/>
</linearGradient>
<linearGradient id="paint38_linear_349_34278" x1="3.24268" y1="128.772" x2="-7.62472" y2="43.5083" gradientUnits="userSpaceOnUse">
<stop stop-color="#4135F3"/>
<stop offset="1" stop-color="#7168F6"/>
</linearGradient>
<linearGradient id="paint39_linear_349_34278" x1="64.6294" y1="136.99" x2="53.762" y2="51.7261" gradientUnits="userSpaceOnUse">
<stop stop-color="#4135F3"/>
<stop offset="1" stop-color="#7168F6"/>
</linearGradient>
<linearGradient id="paint40_linear_349_34278" x1="64.6294" y1="136.99" x2="53.762" y2="51.7261" gradientUnits="userSpaceOnUse">
<stop stop-color="#4135F3"/>
<stop offset="1" stop-color="#7168F6"/>
</linearGradient>
<linearGradient id="paint41_linear_349_34278" x1="1.43701" y1="169.026" x2="-9.43039" y2="83.7617" gradientUnits="userSpaceOnUse">
<stop stop-color="#4135F3"/>
<stop offset="1" stop-color="#7168F6"/>
</linearGradient>
<linearGradient id="paint42_linear_349_34278" x1="1.43701" y1="169.026" x2="-9.43039" y2="83.7617" gradientUnits="userSpaceOnUse">
<stop stop-color="#4135F3"/>
<stop offset="1" stop-color="#7168F6"/>
</linearGradient>
<linearGradient id="paint43_linear_349_34278" x1="62.8237" y1="177.244" x2="51.9563" y2="91.9795" gradientUnits="userSpaceOnUse">
<stop stop-color="#4135F3"/>
<stop offset="1" stop-color="#7168F6"/>
</linearGradient>
<linearGradient id="paint44_linear_349_34278" x1="62.8237" y1="177.244" x2="51.9563" y2="91.9795" gradientUnits="userSpaceOnUse">
<stop stop-color="#4135F3"/>
<stop offset="1" stop-color="#7168F6"/>
</linearGradient>
<linearGradient id="paint45_linear_349_34278" x1="21.1616" y1="152.305" x2="10.2942" y2="67.0405" gradientUnits="userSpaceOnUse">
<stop stop-color="#4135F3"/>
<stop offset="1" stop-color="#7168F6"/>
</linearGradient>
<linearGradient id="paint46_linear_349_34278" x1="21.1616" y1="152.305" x2="10.2942" y2="67.0405" gradientUnits="userSpaceOnUse">
<stop stop-color="#4135F3"/>
<stop offset="1" stop-color="#7168F6"/>
</linearGradient>
<linearGradient id="paint47_linear_349_34278" x1="82.5483" y1="160.522" x2="71.6809" y2="75.2583" gradientUnits="userSpaceOnUse">
<stop stop-color="#4135F3"/>
<stop offset="1" stop-color="#7168F6"/>
</linearGradient>
<linearGradient id="paint48_linear_349_34278" x1="82.5483" y1="160.522" x2="71.6809" y2="75.2583" gradientUnits="userSpaceOnUse">
<stop stop-color="#4135F3"/>
<stop offset="1" stop-color="#7168F6"/>
</linearGradient>
<linearGradient id="paint49_linear_349_34278" x1="6.49365" y1="134.82" x2="-4.37375" y2="49.5557" gradientUnits="userSpaceOnUse">
<stop stop-color="#4135F3"/>
<stop offset="1" stop-color="#7168F6"/>
</linearGradient>
<linearGradient id="paint50_linear_349_34278" x1="6.49365" y1="134.82" x2="-4.37375" y2="49.5557" gradientUnits="userSpaceOnUse">
<stop stop-color="#4135F3"/>
<stop offset="1" stop-color="#7168F6"/>
</linearGradient>
<linearGradient id="paint51_linear_349_34278" x1="67.8804" y1="143.038" x2="57.013" y2="57.7734" gradientUnits="userSpaceOnUse">
<stop stop-color="#4135F3"/>
<stop offset="1" stop-color="#7168F6"/>
</linearGradient>
<linearGradient id="paint52_linear_349_34278" x1="67.8804" y1="143.038" x2="57.013" y2="57.7734" gradientUnits="userSpaceOnUse">
<stop stop-color="#4135F3"/>
<stop offset="1" stop-color="#7168F6"/>
</linearGradient>
<linearGradient id="paint53_linear_349_34278" x1="17.0952" y1="145.584" x2="6.22781" y2="60.3198" gradientUnits="userSpaceOnUse">
<stop stop-color="#4135F3"/>
<stop offset="1" stop-color="#7168F6"/>
</linearGradient>
<linearGradient id="paint54_linear_349_34278" x1="17.0952" y1="145.584" x2="6.22781" y2="60.3198" gradientUnits="userSpaceOnUse">
<stop stop-color="#4135F3"/>
<stop offset="1" stop-color="#7168F6"/>
</linearGradient>
<linearGradient id="paint55_linear_349_34278" x1="78.4819" y1="153.802" x2="67.6145" y2="68.5376" gradientUnits="userSpaceOnUse">
<stop stop-color="#4135F3"/>
<stop offset="1" stop-color="#7168F6"/>
</linearGradient>
<linearGradient id="paint56_linear_349_34278" x1="78.4819" y1="153.802" x2="67.6145" y2="68.5376" gradientUnits="userSpaceOnUse">
<stop stop-color="#4135F3"/>
<stop offset="1" stop-color="#7168F6"/>
</linearGradient>
<linearGradient id="paint57_linear_349_34278" x1="32.7412" y1="124.826" x2="21.8738" y2="39.562" gradientUnits="userSpaceOnUse">
<stop stop-color="#4135F3"/>
<stop offset="1" stop-color="#7168F6"/>
</linearGradient>
<linearGradient id="paint58_linear_349_34278" x1="32.7412" y1="124.826" x2="21.8738" y2="39.562" gradientUnits="userSpaceOnUse">
<stop stop-color="#4135F3"/>
<stop offset="1" stop-color="#7168F6"/>
</linearGradient>
<linearGradient id="paint59_linear_349_34278" x1="94.1279" y1="133.044" x2="83.2605" y2="47.7798" gradientUnits="userSpaceOnUse">
<stop stop-color="#4135F3"/>
<stop offset="1" stop-color="#7168F6"/>
</linearGradient>
<linearGradient id="paint60_linear_349_34278" x1="94.1279" y1="133.044" x2="83.2605" y2="47.7798" gradientUnits="userSpaceOnUse">
<stop stop-color="#4135F3"/>
<stop offset="1" stop-color="#7168F6"/>
</linearGradient>
<linearGradient id="paint61_linear_349_34278" x1="66.418" y1="80.5752" x2="55.7096" y2="3.94855" gradientUnits="userSpaceOnUse">
<stop stop-color="#4135F3"/>
<stop offset="1" stop-color="#7168F6"/>
</linearGradient>
<linearGradient id="paint62_linear_349_34278" x1="66.418" y1="80.5752" x2="55.7096" y2="3.94855" gradientUnits="userSpaceOnUse">
<stop stop-color="#4135F3"/>
<stop offset="1" stop-color="#7168F6"/>
</linearGradient>
<linearGradient id="paint63_linear_349_34278" x1="26.0098" y1="63.5264" x2="15.3014" y2="-13.1003" gradientUnits="userSpaceOnUse">
<stop stop-color="#4135F3"/>
<stop offset="1" stop-color="#7168F6"/>
</linearGradient>
<linearGradient id="paint64_linear_349_34278" x1="26.0098" y1="63.5264" x2="15.3014" y2="-13.1003" gradientUnits="userSpaceOnUse">
<stop stop-color="#4135F3"/>
<stop offset="1" stop-color="#7168F6"/>
</linearGradient>
<linearGradient id="paint65_linear_349_34278" x1="76.5781" y1="70.9233" x2="65.8698" y2="-5.7033" gradientUnits="userSpaceOnUse">
<stop stop-color="#4135F3"/>
<stop offset="1" stop-color="#7168F6"/>
</linearGradient>
<linearGradient id="paint66_linear_349_34278" x1="76.5781" y1="70.9233" x2="65.8698" y2="-5.7033" gradientUnits="userSpaceOnUse">
<stop stop-color="#4135F3"/>
<stop offset="1" stop-color="#7168F6"/>
</linearGradient>
<linearGradient id="paint67_linear_349_34278" x1="12.4307" y1="84.0591" x2="1.72232" y2="7.43245" gradientUnits="userSpaceOnUse">
<stop stop-color="#4135F3"/>
<stop offset="1" stop-color="#7168F6"/>
</linearGradient>
<linearGradient id="paint68_linear_349_34278" x1="12.4307" y1="84.0591" x2="1.72232" y2="7.43245" gradientUnits="userSpaceOnUse">
<stop stop-color="#4135F3"/>
<stop offset="1" stop-color="#7168F6"/>
</linearGradient>
<linearGradient id="paint69_linear_349_34278" x1="62.999" y1="91.4561" x2="52.2907" y2="14.8294" gradientUnits="userSpaceOnUse">
<stop stop-color="#4135F3"/>
<stop offset="1" stop-color="#7168F6"/>
</linearGradient>
<linearGradient id="paint70_linear_349_34278" x1="62.999" y1="91.4561" x2="52.2907" y2="14.8294" gradientUnits="userSpaceOnUse">
<stop stop-color="#4135F3"/>
<stop offset="1" stop-color="#7168F6"/>
</linearGradient>
<linearGradient id="paint71_linear_349_34278" x1="10.9302" y1="120.354" x2="0.221835" y2="43.7269" gradientUnits="userSpaceOnUse">
<stop stop-color="#4135F3"/>
<stop offset="1" stop-color="#7168F6"/>
</linearGradient>
<linearGradient id="paint72_linear_349_34278" x1="10.9302" y1="120.354" x2="0.221835" y2="43.7269" gradientUnits="userSpaceOnUse">
<stop stop-color="#4135F3"/>
<stop offset="1" stop-color="#7168F6"/>
</linearGradient>
<linearGradient id="paint73_linear_349_34278" x1="61.4985" y1="127.75" x2="50.7902" y2="51.1238" gradientUnits="userSpaceOnUse">
<stop stop-color="#4135F3"/>
<stop offset="1" stop-color="#7168F6"/>
</linearGradient>
<linearGradient id="paint74_linear_349_34278" x1="61.4985" y1="127.75" x2="50.7902" y2="51.1238" gradientUnits="userSpaceOnUse">
<stop stop-color="#4135F3"/>
<stop offset="1" stop-color="#7168F6"/>
</linearGradient>
<linearGradient id="paint75_linear_349_34278" x1="27.1851" y1="105.273" x2="16.4767" y2="28.6463" gradientUnits="userSpaceOnUse">
<stop stop-color="#4135F3"/>
<stop offset="1" stop-color="#7168F6"/>
</linearGradient>
<linearGradient id="paint76_linear_349_34278" x1="27.1851" y1="105.273" x2="16.4767" y2="28.6463" gradientUnits="userSpaceOnUse">
<stop stop-color="#4135F3"/>
<stop offset="1" stop-color="#7168F6"/>
</linearGradient>
<linearGradient id="paint77_linear_349_34278" x1="77.7534" y1="112.67" x2="67.0451" y2="36.0433" gradientUnits="userSpaceOnUse">
<stop stop-color="#4135F3"/>
<stop offset="1" stop-color="#7168F6"/>
</linearGradient>
<linearGradient id="paint78_linear_349_34278" x1="77.7534" y1="112.67" x2="67.0451" y2="36.0433" gradientUnits="userSpaceOnUse">
<stop stop-color="#4135F3"/>
<stop offset="1" stop-color="#7168F6"/>
</linearGradient>
<linearGradient id="paint79_linear_349_34278" x1="15.1064" y1="89.5112" x2="4.3981" y2="12.8846" gradientUnits="userSpaceOnUse">
<stop stop-color="#4135F3"/>
<stop offset="1" stop-color="#7168F6"/>
</linearGradient>
<linearGradient id="paint80_linear_349_34278" x1="15.1064" y1="89.5112" x2="4.3981" y2="12.8846" gradientUnits="userSpaceOnUse">
<stop stop-color="#4135F3"/>
<stop offset="1" stop-color="#7168F6"/>
</linearGradient>
<linearGradient id="paint81_linear_349_34278" x1="65.6748" y1="96.9082" x2="54.9665" y2="20.2816" gradientUnits="userSpaceOnUse">
<stop stop-color="#4135F3"/>
<stop offset="1" stop-color="#7168F6"/>
</linearGradient>
<linearGradient id="paint82_linear_349_34278" x1="65.6748" y1="96.9082" x2="54.9665" y2="20.2816" gradientUnits="userSpaceOnUse">
<stop stop-color="#4135F3"/>
<stop offset="1" stop-color="#7168F6"/>
</linearGradient>
<linearGradient id="paint83_linear_349_34278" x1="23.8369" y1="99.2144" x2="13.1286" y2="22.5877" gradientUnits="userSpaceOnUse">
<stop stop-color="#4135F3"/>
<stop offset="1" stop-color="#7168F6"/>
</linearGradient>
<linearGradient id="paint84_linear_349_34278" x1="23.8369" y1="99.2144" x2="13.1286" y2="22.5877" gradientUnits="userSpaceOnUse">
<stop stop-color="#4135F3"/>
<stop offset="1" stop-color="#7168F6"/>
</linearGradient>
<linearGradient id="paint85_linear_349_34278" x1="74.4053" y1="106.611" x2="63.6969" y2="29.9847" gradientUnits="userSpaceOnUse">
<stop stop-color="#4135F3"/>
<stop offset="1" stop-color="#7168F6"/>
</linearGradient>
<linearGradient id="paint86_linear_349_34278" x1="74.4053" y1="106.611" x2="63.6969" y2="29.9847" gradientUnits="userSpaceOnUse">
<stop stop-color="#4135F3"/>
<stop offset="1" stop-color="#7168F6"/>
</linearGradient>
<linearGradient id="paint87_linear_349_34278" x1="36.7329" y1="80.4946" x2="26.0246" y2="3.86799" gradientUnits="userSpaceOnUse">
<stop stop-color="#4135F3"/>
<stop offset="1" stop-color="#7168F6"/>
</linearGradient>
<linearGradient id="paint88_linear_349_34278" x1="36.7329" y1="80.4946" x2="26.0246" y2="3.86799" gradientUnits="userSpaceOnUse">
<stop stop-color="#4135F3"/>
<stop offset="1" stop-color="#7168F6"/>
</linearGradient>
<linearGradient id="paint89_linear_349_34278" x1="87.3013" y1="87.8916" x2="76.5929" y2="11.265" gradientUnits="userSpaceOnUse">
<stop stop-color="#4135F3"/>
<stop offset="1" stop-color="#7168F6"/>
</linearGradient>
<linearGradient id="paint90_linear_349_34278" x1="87.3013" y1="87.8916" x2="76.5929" y2="11.265" gradientUnits="userSpaceOnUse">
<stop stop-color="#4135F3"/>
<stop offset="1" stop-color="#7168F6"/>
</linearGradient>
<linearGradient id="paint91_linear_349_34278" x1="70.6177" y1="143.854" x2="62.162" y2="75.5528" gradientUnits="userSpaceOnUse">
<stop stop-color="#4135F3"/>
<stop offset="1" stop-color="#7168F6"/>
</linearGradient>
<linearGradient id="paint92_linear_349_34278" x1="70.6177" y1="143.854" x2="62.162" y2="75.5528" gradientUnits="userSpaceOnUse">
<stop stop-color="#4135F3"/>
<stop offset="1" stop-color="#7168F6"/>
</linearGradient>
<linearGradient id="paint93_linear_349_34278" x1="30.2183" y1="128.709" x2="21.7626" y2="60.4078" gradientUnits="userSpaceOnUse">
<stop stop-color="#4135F3"/>
<stop offset="1" stop-color="#7168F6"/>
</linearGradient>
<linearGradient id="paint94_linear_349_34278" x1="30.2183" y1="128.709" x2="21.7626" y2="60.4078" gradientUnits="userSpaceOnUse">
<stop stop-color="#4135F3"/>
<stop offset="1" stop-color="#7168F6"/>
</linearGradient>
<linearGradient id="paint95_linear_349_34278" x1="80.769" y1="135.291" x2="72.3134" y2="66.9888" gradientUnits="userSpaceOnUse">
<stop stop-color="#4135F3"/>
<stop offset="1" stop-color="#7168F6"/>
</linearGradient>
<linearGradient id="paint96_linear_349_34278" x1="80.769" y1="135.291" x2="72.3134" y2="66.9888" gradientUnits="userSpaceOnUse">
<stop stop-color="#4135F3"/>
<stop offset="1" stop-color="#7168F6"/>
</linearGradient>
<linearGradient id="paint97_linear_349_34278" x1="16.6543" y1="146.93" x2="8.19864" y2="78.6285" gradientUnits="userSpaceOnUse">
<stop stop-color="#4135F3"/>
<stop offset="1" stop-color="#7168F6"/>
</linearGradient>
<linearGradient id="paint98_linear_349_34278" x1="16.6543" y1="146.93" x2="8.19864" y2="78.6285" gradientUnits="userSpaceOnUse">
<stop stop-color="#4135F3"/>
<stop offset="1" stop-color="#7168F6"/>
</linearGradient>
<linearGradient id="paint99_linear_349_34278" x1="67.2051" y1="153.511" x2="58.7494" y2="85.2096" gradientUnits="userSpaceOnUse">
<stop stop-color="#4135F3"/>
<stop offset="1" stop-color="#7168F6"/>
</linearGradient>
<linearGradient id="paint100_linear_349_34278" x1="67.2051" y1="153.511" x2="58.7494" y2="85.2096" gradientUnits="userSpaceOnUse">
<stop stop-color="#4135F3"/>
<stop offset="1" stop-color="#7168F6"/>
</linearGradient>
<linearGradient id="paint101_linear_349_34278" x1="15.1709" y1="179.146" x2="6.71524" y2="110.844" gradientUnits="userSpaceOnUse">
<stop stop-color="#4135F3"/>
<stop offset="1" stop-color="#7168F6"/>
</linearGradient>
<linearGradient id="paint102_linear_349_34278" x1="15.1709" y1="179.146" x2="6.71524" y2="110.844" gradientUnits="userSpaceOnUse">
<stop stop-color="#4135F3"/>
<stop offset="1" stop-color="#7168F6"/>
</linearGradient>
<linearGradient id="paint103_linear_349_34278" x1="65.7217" y1="185.727" x2="57.266" y2="117.425" gradientUnits="userSpaceOnUse">
<stop stop-color="#4135F3"/>
<stop offset="1" stop-color="#7168F6"/>
</linearGradient>
<linearGradient id="paint104_linear_349_34278" x1="65.7217" y1="185.727" x2="57.266" y2="117.425" gradientUnits="userSpaceOnUse">
<stop stop-color="#4135F3"/>
<stop offset="1" stop-color="#7168F6"/>
</linearGradient>
<linearGradient id="paint105_linear_349_34278" x1="31.4121" y1="165.765" x2="22.9565" y2="97.4635" gradientUnits="userSpaceOnUse">
<stop stop-color="#4135F3"/>
<stop offset="1" stop-color="#7168F6"/>
</linearGradient>
<linearGradient id="paint106_linear_349_34278" x1="31.4121" y1="165.765" x2="22.9565" y2="97.4635" gradientUnits="userSpaceOnUse">
<stop stop-color="#4135F3"/>
<stop offset="1" stop-color="#7168F6"/>
</linearGradient>
<linearGradient id="paint107_linear_349_34278" x1="81.9629" y1="172.346" x2="73.5072" y2="104.045" gradientUnits="userSpaceOnUse">
<stop stop-color="#4135F3"/>
<stop offset="1" stop-color="#7168F6"/>
</linearGradient>
<linearGradient id="paint108_linear_349_34278" x1="81.9629" y1="172.346" x2="73.5072" y2="104.045" gradientUnits="userSpaceOnUse">
<stop stop-color="#4135F3"/>
<stop offset="1" stop-color="#7168F6"/>
</linearGradient>
<linearGradient id="paint109_linear_349_34278" x1="19.3315" y1="151.771" x2="10.8759" y2="83.4688" gradientUnits="userSpaceOnUse">
<stop stop-color="#4135F3"/>
<stop offset="1" stop-color="#7168F6"/>
</linearGradient>
<linearGradient id="paint110_linear_349_34278" x1="19.3315" y1="151.771" x2="10.8759" y2="83.4688" gradientUnits="userSpaceOnUse">
<stop stop-color="#4135F3"/>
<stop offset="1" stop-color="#7168F6"/>
</linearGradient>
<linearGradient id="paint111_linear_349_34278" x1="69.8823" y1="158.352" x2="61.4267" y2="90.0499" gradientUnits="userSpaceOnUse">
<stop stop-color="#4135F3"/>
<stop offset="1" stop-color="#7168F6"/>
</linearGradient>
<linearGradient id="paint112_linear_349_34278" x1="69.8823" y1="158.352" x2="61.4267" y2="90.0499" gradientUnits="userSpaceOnUse">
<stop stop-color="#4135F3"/>
<stop offset="1" stop-color="#7168F6"/>
</linearGradient>
<linearGradient id="paint113_linear_349_34278" x1="28.063" y1="160.386" x2="19.6073" y2="92.0846" gradientUnits="userSpaceOnUse">
<stop stop-color="#4135F3"/>
<stop offset="1" stop-color="#7168F6"/>
</linearGradient>
<linearGradient id="paint114_linear_349_34278" x1="28.063" y1="160.386" x2="19.6073" y2="92.0846" gradientUnits="userSpaceOnUse">
<stop stop-color="#4135F3"/>
<stop offset="1" stop-color="#7168F6"/>
</linearGradient>
<linearGradient id="paint115_linear_349_34278" x1="78.6138" y1="166.967" x2="70.1581" y2="98.6656" gradientUnits="userSpaceOnUse">
<stop stop-color="#4135F3"/>
<stop offset="1" stop-color="#7168F6"/>
</linearGradient>
<linearGradient id="paint116_linear_349_34278" x1="78.6138" y1="166.967" x2="70.1581" y2="98.6656" gradientUnits="userSpaceOnUse">
<stop stop-color="#4135F3"/>
<stop offset="1" stop-color="#7168F6"/>
</linearGradient>
<linearGradient id="paint117_linear_349_34278" x1="40.9448" y1="143.774" x2="32.4892" y2="75.4722" gradientUnits="userSpaceOnUse">
<stop stop-color="#4135F3"/>
<stop offset="1" stop-color="#7168F6"/>
</linearGradient>
<linearGradient id="paint118_linear_349_34278" x1="40.9448" y1="143.774" x2="32.4892" y2="75.4722" gradientUnits="userSpaceOnUse">
<stop stop-color="#4135F3"/>
<stop offset="1" stop-color="#7168F6"/>
</linearGradient>
<linearGradient id="paint119_linear_349_34278" x1="91.4956" y1="150.355" x2="83.04" y2="82.0533" gradientUnits="userSpaceOnUse">
<stop stop-color="#4135F3"/>
<stop offset="1" stop-color="#7168F6"/>
</linearGradient>
<linearGradient id="paint120_linear_349_34278" x1="91.4956" y1="150.355" x2="83.04" y2="82.0533" gradientUnits="userSpaceOnUse">
<stop stop-color="#4135F3"/>
<stop offset="1" stop-color="#7168F6"/>
</linearGradient>
</defs>
</svg>
